HIERARCHY
ROOT Hips
{
	OFFSET 0.000000 0.000000 0.000000
	CHANNELS 6 Xposition Yposition Zposition Zrotation Yrotation Xrotation 
	JOINT LHipJoint
	{
		OFFSET 0.000000 0.000000 0.000000
		CHANNELS 3 Zrotation Yrotation Xrotation
		JOINT LeftUpLeg
		{
			OFFSET 1.363060 -1.794630 0.839290
			CHANNELS 3 Zrotation Yrotation Xrotation
			JOINT LeftLeg
			{
				OFFSET 2.448110 -6.726130 0.000000
				CHANNELS 3 Zrotation Yrotation Xrotation
				JOINT LeftFoot
				{
					OFFSET 2.562200 -7.039590 0.000000
					CHANNELS 3 Zrotation Yrotation Xrotation
					JOINT LeftToeBase
					{
						OFFSET 0.157640 -0.433110 2.322550
						CHANNELS 3 Zrotation Yrotation Xrotation
						End Site
						{
							OFFSET 0.000000 0.000000 0.000000
						}
					}
				}
			}
		}
	}
	JOINT RHipJoint
	{
		OFFSET 0.000000 0.000000 0.000000
		CHANNELS 3 Zrotation Yrotation Xrotation
		JOINT RightUpLeg
		{
			OFFSET -1.305520 -1.794630 0.839290
			CHANNELS 3 Zrotation Yrotation Xrotation
			JOINT RightLeg
			{
				OFFSET -2.542530 -6.985550 0.000000
				CHANNELS 3 Zrotation Yrotation Xrotation
				JOINT RightFoot
				{
					OFFSET -2.568260 -7.056230 0.000000
					CHANNELS 3 Zrotation Yrotation Xrotation
					JOINT RightToeBase
					{
						OFFSET -0.164730 -0.452590 2.363150
						CHANNELS 3 Zrotation Yrotation Xrotation
						End Site
						{
							OFFSET 0.000000 0.000000 0.000000
						}
					}
				}
			}
		}
	}
}
MOTION
Frames: 30
Frame Time: 0.008333
3.018595 15.771599 0.960400 -162.601838 -89.736632 -154.370224 -9.167043 0.775891 -0.128320 -21.622454 5.333885 -78.279887 -3.589553 5.338158 51.236328 2.085117 4.967669 -17.934782 -0.945900 -0.000000 -41.286600 8.309094 1.291677 -0.518288 16.789683 -10.784329 -77.981210 3.995841 -6.204536 50.747245 0.175705 4.563963 -11.899777 -0.004600 0.000001 -66.693900
3.014183 15.779605 0.970056 -165.465755 -89.479210 -151.659064 -9.282914 0.810675 -0.086525 -21.623210 5.561479 -78.178202 -3.608805 5.355911 51.153639 2.081669 4.946147 -17.968879 -0.947100 -0.000001 -41.305100 8.207417 1.258253 -0.496113 16.863100 -10.744674 -77.718387 4.012457 -6.132330 50.532291 0.204469 4.681276 -11.793992 -0.003800 0.000000 -66.700600
3.008870 15.788809 0.980370 -168.768077 -89.212170 -148.525007 -9.421632 0.835392 -0.042200 -21.633465 5.799849 -78.047247 -3.629566 5.370294 51.051095 2.078064 4.926376 -18.000748 -0.948200 0.000000 -41.327100 8.085007 1.209130 -0.470382 16.928999 -10.714103 -77.432310 4.031178 -6.055373 50.291937 0.234918 4.804365 -11.676150 -0.002600 -0.000000 -66.717001
3.002786 15.799371 0.990927 -172.416306 -88.940706 -145.064605 -9.578611 0.847102 0.000916 -21.662082 6.049908 -77.878021 -3.652041 5.378625 50.925784 2.073690 4.906714 -18.028029 -0.949200 -0.000000 -41.350100 7.946485 1.142217 -0.438947 16.977047 -10.695937 -77.122919 4.051733 -5.975721 50.025893 0.266576 4.931053 -11.547316 -0.000900 -0.000000 -66.744600
2.996019 15.811389 1.001722 -176.517804 -88.671251 -141.172836 -9.754931 0.839971 0.041850 -21.710621 6.308327 -77.663188 -3.675251 5.378111 50.776595 2.068364 4.887424 -18.049002 -0.949899 0.000000 -41.375600 7.791043 1.051944 -0.400654 17.003120 -10.695653 -76.790367 4.074678 -5.895246 49.732679 0.299126 5.059575 -11.406562 0.001500 -0.000000 -66.785200
2.988624 15.824912 1.012477 178.921809 -88.412110 -136.845154 -9.944990 0.809809 0.078197 -21.783544 6.571313 -77.394629 -3.698342 5.365090 50.602438 2.061733 4.868080 -18.060960 -0.950300 0.000000 -41.402100 7.624549 0.934750 -0.353293 16.999229 -10.718713 -76.435744 4.100387 -5.816839 49.412025 0.331928 5.187265 -11.255634 0.004600 -0.000000 -66.839300
2.981075 15.840105 1.023487 173.603107 -88.177874 -131.789217 -10.150259 0.744769 0.109814 -21.875077 6.829429 -77.063417 -3.718154 5.334779 50.405247 2.053950 4.851178 -18.061629 -0.950700 0.000000 -41.433100 7.445467 0.779902 -0.296628 16.965985 -10.776049 -76.057937 4.130456 -5.743846 49.060925 0.364380 5.311220 -11.093577 0.008500 -0.000000 -66.909300
2.973338 15.856855 1.034164 167.564461 -87.980044 -126.040890 -10.353310 0.643280 0.133235 -21.989620 7.077477 -76.662513 -3.733639 5.282236 50.185025 2.044863 4.836719 -18.047910 -0.951000 0.000000 -41.463599 7.271416 0.586637 -0.226869 16.894826 -10.871829 -75.660878 4.165215 -5.680806 48.680808 0.395450 5.427404 -10.924678 0.013200 -0.000000 -66.992500
2.965850 15.875260 1.044596 160.449888 -87.840054 -119.248396 -10.541709 0.495192 0.147212 -22.118396 7.304580 -76.186036 -3.741057 5.201412 49.947034 2.034521 4.826025 -18.017046 -0.951500 -0.000000 -41.493400 7.114521 0.346240 -0.142105 16.788830 -11.015433 -75.244784 4.206636 -5.632803 48.268271 0.423992 5.530881 -10.751001 0.018900 0.000000 -67.087700
2.958787 15.895166 1.054678 151.880364 -87.784177 -111.031295 -10.688854 0.296223 0.149422 -22.249631 7.502322 -75.632395 -3.737118 5.086297 49.697765 2.023147 4.819791 -17.966781 -0.952500 0.000000 -41.520500 7.001006 0.055653 -0.039123 16.654679 -11.211732 -74.809160 4.256544 -5.605349 47.819619 0.448694 5.615894 -10.576083 0.025300 0.000000 -67.193000
2.952413 15.916503 1.064336 141.330359 -87.846519 -100.862546 -10.751184 0.053647 0.136879 -22.363527 7.668375 -75.008845 -3.718953 4.932809 49.446698 2.011336 4.818268 -17.895877 -0.954300 0.000001 -41.542401 6.973439 -0.276698 0.085511 16.508561 -11.457074 -74.348711 4.316029 -5.602587 47.329721 0.468312 5.676101 -10.403036 0.032600 -0.000000 -67.305500
2.946820 15.939058 1.073569 128.111939 -88.074701 -88.050123 -10.664747 -0.198086 0.106767 -22.424756 7.816811 -74.341947 -3.685690 4.743647 49.205774 2.000459 4.821186 -17.806990 -0.956900 0.000000 -41.556601 7.093855 -0.615924 0.232131 16.385109 -11.727190 -73.844071 4.383906 -5.622675 46.792501 0.482167 5.706010 -10.232134 0.040500 0.000001 -67.422100
2.942150 15.962669 1.082367 111.789524 -88.525992 -72.152408 -10.359093 -0.367445 0.059376 -22.385505 7.998489 -73.690483 -3.643697 4.540332 48.979385 1.993972 4.833435 -17.710046 -0.960600 0.000000 -41.561200 7.429232 -0.870518 0.389736 16.334391 -11.954873 -73.256738 4.451489 -5.646660 46.209781 0.491546 5.706629 -10.055780 0.049000 0.000000 -67.539900
2.938182 15.987048 1.090630 92.991333 -89.263000 -53.778877 -9.826304 -0.307884 0.006276 -22.217855 8.300005 -73.141931 -3.613510 4.375026 48.745934 1.997583 4.871373 -17.623836 -0.965000 0.000000 -41.553800 7.983232 -0.893835 0.524737 16.389941 -12.027452 -72.544209 4.497768 -5.628399 45.607560 0.501103 5.693939 -9.855258 0.057800 0.000000 -67.656100
2.949153 16.019892 1.076033 -153.256966 -85.683462 -168.087335 -8.977795 1.577100 -0.293583 -22.387565 10.818724 -73.093698 -4.004058 4.928750 48.105253 2.021810 4.937163 -17.883277 -0.983200 -0.000000 -41.409300 8.796896 1.062317 0.291714 15.985164 -10.245809 -70.782964 4.128313 -4.961588 45.334963 0.558161 5.788440 -9.343774 0.068400 -0.000000 -67.823301
2.946953 16.045011 1.084093 -157.269575 -85.191234 -164.465976 -9.116835 1.688036 -0.280281 -22.469823 11.158532 -72.498930 -4.048629 4.908002 47.663744 2.041152 5.094942 -17.806371 -0.989100 -0.000000 -41.382601 8.690515 1.124308 0.311258 15.719712 -10.223112 -70.130355 4.100788 -4.808493 44.875406 0.578943 5.822023 -9.087185 0.077300 -0.000000 -67.929600
2.945254 16.070205 1.092008 -160.562849 -84.740166 -161.550679 -9.243689 1.772147 -0.278199 -22.556509 11.471065 -71.894594 -4.087753 4.874294 47.218963 2.060841 5.258823 -17.719635 -0.994900 0.000001 -41.345200 8.596057 1.166313 0.336657 15.433213 -10.198694 -69.493575 4.075557 -4.666324 44.402509 0.595460 5.833798 -8.831291 0.085899 0.000000 -68.029800
2.943785 16.095217 1.099868 -163.263348 -84.314931 -159.205997 -9.354437 1.837556 -0.288155 -22.648829 11.767950 -71.298082 -4.123775 4.832374 46.774964 2.079810 5.421976 -17.625363 -1.000000 0.000000 -41.299900 8.516568 1.195812 0.367265 15.132927 -10.158891 -68.875586 4.052089 -4.532887 43.916596 0.608118 5.825124 -8.574689 0.094100 0.000001 -68.124300
2.942269 16.119824 1.107774 -165.448143 -83.902518 -157.347138 -9.447255 1.890664 -0.310528 -22.749410 12.060743 -70.724415 -4.159103 4.786426 46.335229 2.096818 5.576677 -17.526165 -1.003700 0.000001 -41.250000 8.453170 1.217819 0.403217 14.825803 -10.092176 -68.279846 4.030051 -4.406328 43.418280 0.617507 5.798405 -8.316063 0.101901 0.000000 -68.214300
2.940488 16.143875 1.115730 -167.219274 -83.489745 -155.867620 -9.523483 1.936837 -0.344847 -22.865471 12.358877 -70.186274 -4.196189 4.740161 45.901801 2.110744 5.716126 -17.423760 -1.005400 0.000000 -41.200699 8.403919 1.235748 0.445755 14.514815 -9.989848 -67.712256 4.009015 -4.285000 42.909038 0.624481 5.757395 -8.054145 0.109100 0.000000 -68.301700
2.938555 16.167263 1.123966 -168.549973 -83.068236 -154.795599 -9.580675 1.979338 -0.392443 -22.994707 12.677222 -69.694181 -4.236126 4.697055 45.482967 2.120248 5.832920 -17.321194 -1.004800 0.000000 -41.151600 8.370493 1.252430 0.494293 14.208855 -9.844739 -67.169993 3.988605 -4.167685 42.389567 0.629553 5.704219 -7.786801 0.115700 0.000000 -68.386199
2.936059 16.189801 1.132339 -169.594704 -82.626972 -153.971909 -9.624838 2.022070 -0.450406 -23.149133 13.018678 -69.253952 -4.281269 4.659009 45.075621 2.124754 5.923300 -17.218577 -1.001400 -0.000000 -41.110100 8.347067 1.268225 0.551943 13.904897 -9.654590 -66.662458 3.968596 -4.053351 41.862750 0.633915 5.644462 -7.513156 0.121900 0.000000 -68.471600
2.932991 16.211456 1.140895 -170.401321 -82.160990 -153.350221 -9.657702 2.066660 -0.517534 -23.331686 13.387457 -68.869540 -4.332367 4.627242 44.681212 2.123784 5.984472 -17.116393 -0.995300 0.000000 -41.079000 8.331668 1.283349 0.619617 13.604802 -9.419522 -66.191689 3.949038 -3.941536 41.329576 0.638500 5.582401 -7.231345 0.127700 0.000000 -68.559601
2.929764 16.232089 1.149734 -170.995918 -81.667272 -152.908125 -9.680091 2.113145 -0.594466 -23.541136 13.787332 -68.543409 -4.389065 4.603171 44.306871 2.117453 6.016496 -17.017839 -0.986800 0.000000 -41.054600 8.323017 1.298618 0.696175 13.310849 -9.140676 -65.758059 3.929665 -3.832407 40.794374 0.643896 5.521335 -6.941581 0.133400 -0.000000 -68.650300
2.926006 16.251662 1.158759 -171.464165 -81.146858 -152.556778 -9.695627 2.162206 -0.677611 -23.782544 14.210709 -68.274455 -4.451630 4.585732 43.947350 2.106322 6.021664 -16.921191 -0.976100 0.000000 -41.040400 8.317792 1.312361 0.783418 13.021217 -8.823982 -65.368521 3.911247 -3.726323 40.257996 0.651180 5.466264 -6.642562 0.139200 -0.000001 -68.745400
2.921982 16.270135 1.168007 -171.837169 -80.602725 -152.267386 -9.705210 2.212871 -0.765824 -24.053793 14.650567 -68.061828 -4.518939 4.574407 43.604537 2.091485 6.004711 -16.827949 -0.963800 -0.000000 -41.032700 8.314753 1.324468 0.880246 12.736484 -8.474981 -65.025524 3.894176 -3.623952 39.723002 0.660927 5.420362 -6.334702 0.145500 0.000001 -68.844900
2.917687 16.287442 1.177480 -172.146661 -80.040023 -152.006533 -9.710103 2.264316 -0.857127 -24.352739 15.097199 -67.902452 -4.589901 4.567943 43.277507 2.074406 5.972145 -16.739113 -0.950600 -0.000000 -41.026899 8.312753 1.334345 0.985999 12.456350 -8.100693 -64.732664 3.879141 -3.526071 39.191555 0.673734 5.386851 -6.018454 0.152700 -0.000000 -68.947900
2.913058 16.303544 1.187216 -172.415835 -79.465838 -151.749747 -9.711062 2.315790 -0.948099 -24.676519 15.535742 -67.795396 -4.663029 4.564745 42.964992 2.056852 5.931446 -16.655392 -0.937399 0.000000 -41.018600 8.310976 1.341056 1.100775 12.181368 -7.707297 -64.494934 3.866977 -3.433423 38.664852 0.689986 5.367726 -5.694363 0.161100 0.000000 -69.053100
2.908331 16.318440 1.197221 -172.652769 -78.884858 -151.490422 -9.707987 2.365404 -1.040032 -25.019618 15.959763 -67.733582 -4.737022 4.563818 42.667274 2.040178 5.889227 -16.579182 -0.925099 0.000000 -40.998700 8.309307 1.345479 1.220159 11.913080 -7.304197 -64.309080 3.858630 -3.346513 38.142987 0.710341 5.367288 -5.364135 0.171200 0.000000 -69.160400
2.903111 16.332087 1.207556 -172.866230 -78.305931 -151.214536 -9.701412 2.413179 -1.127460 -25.378740 16.351689 -67.718184 -4.810606 4.563135 42.380839 2.026392 5.853393 -16.511205 -0.914400 -0.000000 -40.964100 8.307456 1.345868 1.346517 11.652391 -6.894470 -64.182902 3.855054 -3.265831 37.626242 0.734779 5.385080 -5.028458 0.183500 -0.000001 -69.266500
